<svg width="171" height="170" viewBox="0 0 171 170" fill="none" xmlns="http://www.w3.org/2000/svg">
<circle cx="85.6665" cy="85" r="85" fill="#456BF2"/>
<mask id="mask0" mask-type="alpha" maskUnits="userSpaceOnUse" x="0" y="0" width="171" height="170">
<circle cx="85.6665" cy="85" r="85" fill="#456BF2"/>
</mask>
<g mask="url(#mask0)">
<rect x="-20.1113" y="109.556" width="211.556" height="77.4444" fill="#3558D2"/>
<line x1="6.33301" y1="124.289" x2="165" y2="124.289" stroke="#CFD9E1" stroke-width="0.755556" stroke-dasharray="3.78 9.44"/>
<line x1="6.33301" y1="145.067" x2="165" y2="145.067" stroke="#CFD9E1" stroke-width="0.755556" stroke-dasharray="3.78 9.44"/>
<path d="M149.576 90.8838L149.576 92.425C149.576 95.2622 147.605 97.7187 144.836 98.3341L139.296 99.5651C132.462 101.084 125.482 101.85 118.481 101.85L82.8649 101.85C62.1035 101.85 41.9021 95.1164 25.2927 82.6592C24.1226 81.489 23.4652 79.9018 23.465 78.2468C23.465 76.1414 25.172 74.4346 27.277 74.4347L30.1111 74.4347L23.6624 52.9364C22.7777 49.9875 24.9859 47.0192 28.0648 47.0195C29.3679 47.0196 30.6095 47.5727 31.4812 48.5411L54.7855 74.4349L111.691 74.435C116.804 74.435 121.877 75.3287 126.682 77.0759L144.423 83.5272C147.517 84.6521 149.576 87.5922 149.576 90.8838Z" fill="#E5EDEF"/>
<path d="M147.33 85.4007L137.364 85.4007C133.51 85.4007 130.386 82.2762 130.385 78.4222L144.423 83.5268C145.546 83.9352 146.529 84.5845 147.33 85.4007Z" fill="#1635A3"/>
<path d="M31.4817 48.5409L54.7859 74.4347L30.1122 74.4347L23.6628 52.9365C22.7781 49.9876 24.9863 47.0193 28.0653 47.0193C29.3684 47.0194 30.61 47.5725 31.4817 48.5409Z" fill="#4340E9"/>
<path d="M41.286 66.2101C34.8799 66.2102 29.1591 63.28 25.3883 58.6876L23.6629 52.9364C22.7782 49.9875 24.9863 47.0192 28.0653 47.0195C29.3684 47.0196 30.61 47.5727 31.4817 48.5411L46.7248 65.4778C44.9916 65.9518 43.1695 66.21 41.286 66.2101Z" fill="#79A7FF"/>
<path d="M149.576 90.8838L149.576 92.425C149.576 95.2622 147.605 97.7187 144.836 98.3341L139.297 99.5649C132.463 101.084 125.483 101.85 118.481 101.85L82.8653 101.85C67.2734 101.85 51.9974 98.0514 38.3218 90.8837L83.7791 90.8837L69.2949 47.4308C68.3283 44.5308 70.4867 41.5362 73.5433 41.5361C74.8225 41.536 76.0406 42.0831 76.8905 43.0391L119.419 90.8836L147.608 90.8835L149.373 90.8835L149.576 90.8838Z" fill="#CFD9E1"/>
<path d="M71.4135 49.4222L108.268 90.8837L108.268 93.6251L83.7796 93.6253L83.7797 90.8839L70.0834 49.7957C70.1746 49.2233 70.9579 48.91 71.4135 49.4222Z" fill="#B7CBD7"/>
<path d="M44.0053 93.6253C42.0835 92.774 40.1875 91.8616 38.3223 90.8837L83.7796 90.8837L119.419 90.8836L147.608 90.8836L148.136 90.8837L149.373 90.8838L149.576 90.8838L149.576 92.4249C149.576 92.8349 149.531 93.2356 149.452 93.6253L44.0053 93.6253Z" fill="#4340E9"/>
<circle cx="134.016" cy="105.876" r="3.13374" fill="#1635A3"/>
<circle cx="83.8754" cy="105.876" r="3.13374" fill="#1635A3"/>
</g>
<path d="M40.333 69.8889H50.685L52.413 71.7778H40.333V69.8889Z" fill="#FEE903"/>
</svg>
